<svg width="20" height="20" viewBox="0 0 20 20" fill="none" xmlns="http://www.w3.org/2000/svg">
<path opacity="0.1" fill-rule="evenodd" clip-rule="evenodd" d="M1.875 10C1.875 5.51269 5.51269 1.875 10 1.875C14.4873 1.875 18.125 5.51269 18.125 10C18.125 14.4873 14.4873 18.125 10 18.125C5.51269 18.125 1.875 14.4873 1.875 10Z" fill="white"/>
<path fill-rule="evenodd" clip-rule="evenodd" d="M10 16.875C13.797 16.875 16.875 13.797 16.875 10C16.875 6.20304 13.797 3.125 10 3.125C6.20304 3.125 3.125 6.20304 3.125 10C3.125 13.797 6.20304 16.875 10 16.875ZM18.125 10C18.125 14.4873 14.4873 18.125 10 18.125C5.51269 18.125 1.875 14.4873 1.875 10C1.875 5.51269 5.51269 1.875 10 1.875C14.4873 1.875 18.125 5.51269 18.125 10ZM13.4419 10.4419L10.4419 13.4419C10.1979 13.686 9.80214 13.686 9.55806 13.4419L6.55806 10.4419C6.31398 10.1979 6.31398 9.80214 6.55806 9.55806C6.80214 9.31398 7.19786 9.31398 7.44194 9.55806L9.375 11.4911V7C9.375 6.65482 9.65482 6.375 10 6.375C10.3452 6.375 10.625 6.65482 10.625 7V11.4911L12.5581 9.55806C12.8021 9.31398 13.1979 9.31398 13.4419 9.55806C13.686 9.80214 13.686 10.1979 13.4419 10.4419Z" fill="white"/>
</svg>
